<?xml version="1.0" standalone="no"?>
<!DOCTYPE svg PUBLIC "-//W3C//DTD SVG 20010904//EN"
 "http://www.w3.org/TR/2001/REC-SVG-20010904/DTD/svg10.dtd">
<svg version="1.0" xmlns="http://www.w3.org/2000/svg"
 width="700.000000pt" height="700.000000pt" viewBox="0 0 700.000000 700.000000"
 preserveAspectRatio="xMidYMid meet">
<metadata>
Created by potrace 1.11, written by Peter Selinger 2001-2013
</metadata>
<g transform="translate(0.000000,700.000000) scale(0.100000,-0.100000)"
fill="#000000" stroke="none">
<path d="M3183 6980 c-722 -110 -1329 -553 -1648 -1205 -223 -455 -282 -953
-170 -1448 88 -390 273 -735 559 -1035 360 -379 626 -723 883 -1142 419 -684
650 -1360 682 -1995 8 -156 8 -153 30 127 59 744 435 1610 1049 2418 161 211
283 354 505 588 404 428 617 951 617 1518 0 576 -223 1128 -623 1535 -342 350
-772 568 -1260 639 -175 26 -451 26 -624 0z m562 -1334 c359 -107 602 -417
622 -791 13 -251 -77 -482 -255 -659 -111 -110 -222 -175 -379 -222 -115 -35
-315 -40 -433 -10 -154 38 -304 123 -414 233 -365 365 -333 973 69 1293 108
86 262 157 393 180 26 5 106 7 177 6 105 -3 147 -9 220 -30z"/>
</g>
</svg>
